<!DOCTYPE svg PUBLIC "-//W3C//DTD SVG 1.1//EN" "http://www.w3.org/Graphics/SVG/1.1/DTD/svg11.dtd">
<svg xmlns="http://www.w3.org/2000/svg" width="400" height="400">
<rect width="335" height="86" fill="#ffffff"/>
<rect width="335" height="86" fill="#ffffff"/>
<rect width="335" height="86" fill="#ffffff"/>
<rect width="335" height="86" fill="#ffffff"/>
<rect width="335" height="86" fill="#ffffff"/>
<path d="M19.6875 51.7188C14.5417 50.2396 10.7917 48.4271 8.4375 46.2812C6.10417 44.1146 4.9375 41.4479 4.9375 38.2812C4.9375 34.6979 6.36458 31.7396 9.21875 29.4062C12.0938 27.0521 15.8229 25.875 20.4062 25.875C23.5312 25.875 26.3125 26.4792 28.75 27.6875C31.2083 28.8958 33.1042 30.5625 34.4375 32.6875C35.7917 34.8125 36.4688 37.1354 36.4688 39.6562H30.4375C30.4375 36.9062 29.5625 34.75 27.8125 33.1875C26.0625 31.6042 23.5938 30.8125 20.4062 30.8125C17.4479 30.8125 15.1354 31.4688 13.4688 32.7812C11.8229 34.0729 11 35.875 11 38.1875C11 40.0417 11.7812 41.6146 13.3438 42.9062C14.9271 44.1771 17.6042 45.3438 21.375 46.4062C25.1667 47.4688 28.125 48.6458 30.25 49.9375C32.3958 51.2083 33.9792 52.6979 35 54.4062C36.0417 56.1146 36.5625 58.125 36.5625 60.4375C36.5625 64.125 35.125 67.0833 32.25 69.3125C29.375 71.5208 25.5312 72.625 20.7188 72.625C17.5938 72.625 14.6771 72.0312 11.9688 70.8438C9.26042 69.6354 7.16667 67.9896 5.6875 65.9062C4.22917 63.8229 3.5 61.4583 3.5 58.8125H9.53125C9.53125 61.5625 10.5417 63.7396 12.5625 65.3438C14.6042 66.9271 17.3229 67.7188 20.7188 67.7188C23.8854 67.7188 26.3125 67.0729 28 65.7812C29.6875 64.4896 30.5312 62.7292 30.5312 60.5C30.5312 58.2708 29.75 56.5521 28.1875 55.3438C26.625 54.1146 23.7917 52.9062 19.6875 51.7188ZM58.1562 49.3438L70.0312 26.5H76.8438L61.1562 55.0312V72H55.1562V55.0312L39.4688 26.5H46.3438L58.1562 49.3438ZM82.7188 72V26.5H95.5625C99.5208 26.5 103.021 27.375 106.062 29.125C109.104 30.875 111.448 33.3646 113.094 36.5938C114.76 39.8229 115.604 43.5312 115.625 47.7188V50.625C115.625 54.9167 114.792 58.6771 113.125 61.9062C111.479 65.1354 109.115 67.6146 106.031 69.3438C102.969 71.0729 99.3958 71.9583 95.3125 72H82.7188ZM88.7188 31.4375V67.0938H95.0312C99.6562 67.0938 103.25 65.6562 105.812 62.7812C108.396 59.9062 109.688 55.8125 109.688 50.5V47.8438C109.688 42.6771 108.469 38.6667 106.031 35.8125C103.615 32.9375 100.177 31.4792 95.7188 31.4375H88.7188ZM150.438 50.9688H130.719V67.0938H153.625V72H124.719V26.5H153.312V31.4375H130.719V46.0625H150.438V50.9688ZM300.531 72H270.719V67.8438L286.469 50.3438C288.802 47.6979 290.406 45.5521 291.281 43.9062C292.177 42.2396 292.625 40.5208 292.625 38.75C292.625 36.375 291.906 34.4271 290.469 32.9062C289.031 31.3854 287.115 30.625 284.719 30.625C281.844 30.625 279.604 31.4479 278 33.0938C276.417 34.7188 275.625 36.9896 275.625 39.9062H269.844C269.844 35.7188 271.188 32.3333 273.875 29.75C276.583 27.1667 280.198 25.875 284.719 25.875C288.948 25.875 292.292 26.9896 294.75 29.2188C297.208 31.4271 298.438 34.375 298.438 38.0625C298.438 42.5417 295.583 47.875 289.875 54.0625L277.688 67.2812H300.531V72ZM315.062 46.4375H319.406C322.135 46.3958 324.281 45.6771 325.844 44.2812C327.406 42.8854 328.188 41 328.188 38.625C328.188 33.2917 325.531 30.625 320.219 30.625C317.719 30.625 315.719 31.3438 314.219 32.7812C312.74 34.1979 312 36.0833 312 38.4375H306.219C306.219 34.8333 307.531 31.8438 310.156 29.4688C312.802 27.0729 316.156 25.875 320.219 25.875C324.51 25.875 327.875 27.0104 330.312 29.2812C332.75 31.5521 333.969 34.7083 333.969 38.75C333.969 40.7292 333.323 42.6458 332.031 44.5C330.76 46.3542 329.021 47.7396 326.812 48.6562C329.312 49.4479 331.24 50.7604 332.594 52.5938C333.969 54.4271 334.656 56.6667 334.656 59.3125C334.656 63.3958 333.323 66.6354 330.656 69.0312C327.99 71.4271 324.521 72.625 320.25 72.625C315.979 72.625 312.5 71.4688 309.812 69.1562C307.146 66.8438 305.812 63.7917 305.812 60H311.625C311.625 62.3958 312.406 64.3125 313.969 65.75C315.531 67.1875 317.625 67.9062 320.25 67.9062C323.042 67.9062 325.177 67.1771 326.656 65.7188C328.135 64.2604 328.875 62.1667 328.875 59.4375C328.875 56.7917 328.062 54.7604 326.438 53.3438C324.812 51.9271 322.469 51.1979 319.406 51.1562H315.062V46.4375Z" fill="#433595"/>
<path d="M212.5 0L223.164 32.8217H257.675L229.755 53.1066L240.42 85.9283L212.5 65.6434L184.58 85.9283L195.245 53.1066L167.325 32.8217H201.836L212.5 0Z" fill="#433595"/>
<line y1="81" x2="162" y2="81" stroke="#433595" stroke-width="2"/>
<line x1="262" y1="81" x2="335" y2="81" stroke="#433595" stroke-width="2"/>
</svg>
